<?xml version="1.0" encoding="UTF-8" standalone="no"?>
<svg xmlns:dc="http://purl.org/dc/elements/1.1/" xmlns:cc="http://creativecommons.org/ns#" xmlns:rdf="http://www.w3.org/1999/02/22-rdf-syntax-ns#" xmlns:svg="http://www.w3.org/2000/svg" xmlns="http://www.w3.org/2000/svg" width="101" height="100" viewBox="0 0 101 100" fill="none" version="1.1" id="svg881">
	<metadata id="metadata887">
		<RDF>
			<Work rdf:about="">
				<format>
					image/svg+xml
				</format>
				<type rdf:resource="http://purl.org/dc/dcmitype/StillImage" />
				<title>
				</title>
			</Work>
		</RDF>
	</metadata>
	<defs id="defs885">
		<style>
			#circle879 {
			animation: fadeInFadeOut 0.3s alternate infinite;
			}
			@keyframes fadeInFadeOut {
			from {
			opacity: 0.4;
			}
			to {
			opacity: 1;
			}
			}
		</style>
	</defs>
	<circle cx="50.3333" cy="50" r="49.5" fill="#FF2222" fill-opacity="0.72" stroke="#AEAEAE" id="circle879" />
	<path d="m 55,50 c 0,-0.8288 0.3292,-1.6237 0.9153,-2.2097 0.586,-0.5861 1.3809,-0.9153 2.2097,-0.9153 0.8288,0 1.6237,0.3292 2.2097,0.9153 0.5861,0.586 0.9153,1.3809 0.9153,2.2097 0,0.8288 -0.3292,1.6237 -0.9153,2.2097 -0.586,0.5861 -1.3809,0.9153 -2.2097,0.9153 -0.8288,0 -1.6237,-0.3292 -2.2097,-0.9153 C 55.3292,51.6237 55,50.8288 55,50 Z m 20.625,-2.5 v 25 h -50 v -25 c 0,-13.75 11.25,-25 25,-25 13.75,0 25,11.25 25,25 z m -45,0 c 0,11.025 8.975,20 20,20 11.025,0 20,-8.975 20,-20 0,-1.975 -0.3,-3.875 -0.825,-5.65 -4.8331,1.1228 -9.8913,0.7781 -14.5275,-0.99 -4.6361,-1.768 -8.6394,-4.879 -11.4975,-8.935 -2.45,5.975 -7.125,10.8 -13.025,13.425 -0.125,0.7 -0.125,1.425 -0.125,2.15 z m 12.5,5.625 c 0.8288,0 1.6237,-0.3292 2.2097,-0.9153 C 45.9208,51.6237 46.25,50.8288 46.25,50 c 0,-0.8288 -0.3292,-1.6237 -0.9153,-2.2097 -0.586,-0.5861 -1.3809,-0.9153 -2.2097,-0.9153 -0.8288,0 -1.6237,0.3292 -2.2097,0.9153 C 40.3292,48.3763 40,49.1712 40,50 c 0,0.8288 0.3292,1.6237 0.9153,2.2097 0.586,0.5861 1.3809,0.9153 2.2097,0.9153 z" fill="#ffffff" id="path927" />
</svg>
