<svg width="10" height="10" viewBox="0 0 10 10" fill="none" xmlns="http://www.w3.org/2000/svg">
<path d="M4.9375 0.25C4.0104 0.25 3.10412 0.524917 2.33327 1.03999C1.56241 1.55506 0.961602 2.28714 0.606817 3.14367C0.252031 4.0002 0.159203 4.9427 0.340071 5.85198C0.520939 6.76127 0.96738 7.5965 1.62294 8.25206C2.2785 8.90762 3.11373 9.35406 4.02302 9.53493C4.9323 9.7158 5.8748 9.62297 6.73133 9.26818C7.58786 8.9134 8.31994 8.31259 8.83501 7.54173C9.35008 6.77088 9.625 5.8646 9.625 4.9375C9.625 4.32193 9.50375 3.71238 9.26819 3.14367C9.03262 2.57496 8.68734 2.05821 8.25206 1.62294C7.81679 1.18766 7.30004 0.842383 6.73133 0.606815C6.16262 0.371246 5.55307 0.25 4.9375 0.25V0.25ZM4.9375 7.28125C4.84479 7.28125 4.75416 7.25376 4.67708 7.20225C4.59999 7.15074 4.53991 7.07753 4.50443 6.99188C4.46895 6.90623 4.45967 6.81198 4.47776 6.72105C4.49585 6.63012 4.54049 6.5466 4.60605 6.48104C4.6716 6.41549 4.75512 6.37084 4.84605 6.35276C4.93698 6.33467 5.03123 6.34395 5.11688 6.37943C5.20254 6.41491 5.27575 6.47499 5.32725 6.55207C5.37876 6.62916 5.40625 6.71979 5.40625 6.8125C5.40625 6.93682 5.35687 7.05605 5.26896 7.14395C5.18105 7.23186 5.06182 7.28125 4.9375 7.28125ZM5.40625 5.40625C5.40625 5.53057 5.35687 5.6498 5.26896 5.7377C5.18105 5.82561 5.06182 5.875 4.9375 5.875C4.81318 5.875 4.69395 5.82561 4.60605 5.7377C4.51814 5.6498 4.46875 5.53057 4.46875 5.40625V3.0625C4.46875 2.93818 4.51814 2.81895 4.60605 2.73104C4.69395 2.64314 4.81318 2.59375 4.9375 2.59375C5.06182 2.59375 5.18105 2.64314 5.26896 2.73104C5.35687 2.81895 5.40625 2.93818 5.40625 3.0625V5.40625Z" fill="black"/>
</svg>
