<?xml version="1.0" encoding="UTF-8" standalone="no"?>
<svg
   xmlns:dc="http://purl.org/dc/elements/1.1/"
   xmlns:cc="http://creativecommons.org/ns#"
   xmlns:rdf="http://www.w3.org/1999/02/22-rdf-syntax-ns#"
   xmlns:svg="http://www.w3.org/2000/svg"
   xmlns="http://www.w3.org/2000/svg"
   width="51"
   height="51"
   viewBox="0 0 51 51"
   fill="none"
   version="1.1"
   id="svg870">
  <metadata
     id="metadata876">
    <rdf:RDF>
      <cc:Work
         rdf:about="">
        <dc:format>image/svg+xml</dc:format>
        <dc:type
           rdf:resource="http://purl.org/dc/dcmitype/StillImage" />
        <dc:title></dc:title>
      </cc:Work>
    </rdf:RDF>
  </metadata>
  <defs
     id="defs874" />
  <path
     d="M30.2085 28C30.2085 27.1712 30.5377 26.3763 31.1238 25.7903C31.7098 25.2042 32.5047 24.875 33.3335 24.875C34.1623 24.875 34.9572 25.2042 35.5432 25.7903C36.1293 26.3763 36.4585 27.1712 36.4585 28C36.4585 28.8288 36.1293 29.6237 35.5432 30.2097C34.9572 30.7958 34.1623 31.125 33.3335 31.125C32.5047 31.125 31.7098 30.7958 31.1238 30.2097C30.5377 29.6237 30.2085 28.8288 30.2085 28ZM50.8335 25.5V50.5H0.833496V25.5C0.833496 11.75 12.0835 0.5 25.8335 0.5C39.5835 0.5 50.8335 11.75 50.8335 25.5ZM5.8335 25.5C5.8335 36.525 14.8085 45.5 25.8335 45.5C36.8585 45.5 45.8335 36.525 45.8335 25.5C45.8335 23.525 45.5335 21.625 45.0085 19.85C40.1754 20.9728 35.1172 20.6281 30.481 18.86C25.8449 17.092 21.8416 13.981 18.9835 9.925C16.5335 15.9 11.8585 20.725 5.9585 23.35C5.8335 24.05 5.8335 24.775 5.8335 25.5ZM18.3335 31.125C19.1623 31.125 19.9572 30.7958 20.5432 30.2097C21.1293 29.6237 21.4585 28.8288 21.4585 28C21.4585 27.1712 21.1293 26.3763 20.5432 25.7903C19.9572 25.2042 19.1623 24.875 18.3335 24.875C17.5047 24.875 16.7098 25.2042 16.1238 25.7903C15.5377 26.3763 15.2085 27.1712 15.2085 28C15.2085 28.8288 15.5377 29.6237 16.1238 30.2097C16.7098 30.7958 17.5047 31.125 18.3335 31.125Z"
     fill="white"
     id="path868"
     style="fill:#000000;fill-opacity:1" />
</svg>
